<svg id="Layer_1" data-name="Layer 1" xmlns="http://www.w3.org/2000/svg" viewBox="0 0 300 300"><defs><style>.cls-1{fill:#fff;}</style></defs><circle class="cls-1" cx="75" cy="50" r="12.5"/><circle class="cls-1" cx="225" cy="50" r="12.5"/><circle class="cls-1" cx="75" cy="150" r="12.5"/><circle class="cls-1" cx="225" cy="150" r="12.5"/><circle class="cls-1" cx="75" cy="250" r="12.5"/><circle class="cls-1" cx="225" cy="250" r="12.5"/><circle class="cls-1" cx="150" cy="100" r="12.5"/><circle class="cls-1" cx="150" cy="200" r="12.5"/><path class="cls-1" d="M12.5,300H0V287.51H0a13.13,13.13,0,0,1,2.52.25,12.48,12.48,0,0,1,6.3,3.4l.41.43,0,0A12.47,12.47,0,0,1,12.5,300Z"/><path class="cls-1" d="M12.5,200A12.5,12.5,0,0,1,0,212.5v-25H0a13.13,13.13,0,0,1,2.52.25,12.48,12.48,0,0,1,6.3,3.4l.41.43,0,0A12.47,12.47,0,0,1,12.5,200Z"/><path class="cls-1" d="M12.5,100A12.5,12.5,0,0,1,0,112.5v-25H0a13.13,13.13,0,0,1,2.52.25,12.48,12.48,0,0,1,6.3,3.4l.41.43,0,0A12.47,12.47,0,0,1,12.5,100Z"/><path class="cls-1" d="M12.5,0A12.52,12.52,0,0,1,3.72,11.94,12.74,12.74,0,0,1,0,12.5V0Z"/><path class="cls-1" d="M162.5,0A12.5,12.5,0,0,1,150,12.5,12.5,12.5,0,0,1,137.5,0Z"/><path class="cls-1" d="M300,0V12.5A12.5,12.5,0,0,1,287.5,0Z"/><path class="cls-1" d="M300,87.5v25a12.5,12.5,0,0,1,0-25Z"/><path class="cls-1" d="M300,187.5v25a12.5,12.5,0,0,1,0-25Z"/><path class="cls-1" d="M300,287.5V300H287.5A12.5,12.5,0,0,1,300,287.5Z"/><path class="cls-1" d="M162.5,300h-25a12.5,12.5,0,0,1,25,0Z"/></svg>