<svg xmlns="http://www.w3.org/2000/svg" viewBox="0 0 777.64 281.1"><defs><style>.cls-1{fill:#fff;}.cls-2{fill:#ff5252;}</style></defs><g id="Layer_2" data-name="Layer 2"><g id="Layer_1-2" data-name="Layer 1"><path class="cls-1" d="M246,278.32H226.18L166.81,106.88,109.1,278.32H89.25L0,2.78H50.28l51,164,55.11-164h21.15l55.29,164,50.84-164H334Z"/><rect class="cls-2" x="519.16" y="4.64" width="47.69" height="271.82"/><polygon class="cls-1" points="417.99 4.64 369.75 4.64 369.75 276.46 417.99 276.46 417.99 154 478.48 154 478.48 111.14 417.99 111.14 417.99 4.64"/><path class="cls-1" d="M613.06,261.44l17.81-43.24q28.57,20,56.22,20,42.49,0,42.49-29.69,0-13.91-10-26.53t-41.28-28.29Q647,138,636.16,127.93a69.06,69.06,0,0,1-16.7-24,78.92,78.92,0,0,1-5.84-30.8q0-31.54,23.1-52.33T696,0q47.13,0,69.21,17.63L750.55,59.19Q725.13,41,696.93,41q-16.7,0-25.89,8.81t-9.18,22.91q0,23.38,51.77,48.62Q740.9,134.7,753,145.93a75.61,75.61,0,0,1,18.37,26.16,84.74,84.74,0,0,1,6.31,33.31q0,33-26.07,54.37T681.71,281.1Q643.67,281.1,613.06,261.44Z"/></g></g></svg>